Coordinates
version=1
nRows=16
nColumns=38
inDegrees=no

Units are S.I. units (second, meters, Newtons, ...)
If the header above contains a line with 'inDegrees', this indicates whether rotational values are in degrees (yes) or radians (no).

endheader
time	pelvis_tilt	pelvis_list	pelvis_rotation	pelvis_tx	pelvis_ty	pelvis_tz	hip_flexion_r	hip_adduction_r	hip_rotation_r	knee_angle_r	ankle_angle_r	subtalar_angle_r	mtp_angle_r	hip_flexion_l	hip_adduction_l	hip_rotation_l	knee_angle_l	ankle_angle_l	subtalar_angle_l	mtp_angle_l	lumbar_extension	lumbar_bending	lumbar_rotation	arm_flex_r	arm_add_r	arm_rot_r	elbow_flex_r	pro_sup_r	wrist_flex_r	wrist_dev_r	arm_flex_l	arm_add_l	arm_rot_l	elbow_flex_l	pro_sup_l	wrist_flex_l	wrist_dev_l
2.49	-0.00656724	1.43748	-1.4615	0.705417	-0.401384	0.928706	-0.371574	0.0447917	-0.115915	0.48886	-0.15292	0	0	0.181402	0.0413425	0.0117526	0.115273	-0.405765	0	0	-0.366875	0.0955648	-0.0186874	-0.180205	-0.473659	0.54849	0.727278	0.827518	0	0	-0.175215	-0.168667	-0.116211	0.603225	1.5708	0	0
2.5	0.00501134	1.44083	-1.4742	0.707429	-0.41252	0.92844	-0.366625	0.0381216	-0.111116	0.511735	-0.17244	0	0	0.186481	0.0469746	0.0173715	0.147583	-0.441173	0	0	-0.355404	0.0948257	0.0264766	-0.255554	-0.433223	0.371229	0.73281	0.966267	0	0	-0.14483	-0.210781	0.0717268	0.583244	1.44564	0	0
2.51	-0.00800125	1.44556	-1.46267	0.709399	-0.423893	0.928077	-0.358323	0.034414	-0.103028	0.536583	-0.194322	0	0	0.179307	0.0490747	0.0449952	0.144284	-0.431869	0	0	-0.350333	0.0956794	-0.0100621	-0.206226	-0.471021	0.515773	0.728772	0.852146	0	0	-0.18213	-0.164121	-0.111106	0.59853	1.5708	0	0
2.52	-0.00597211	1.45076	-1.46372	0.711444	-0.43496	0.928096	-0.346886	0.0286551	-0.0969435	0.565507	-0.218218	0	0	0.191981	0.0490787	0.036462	0.184673	-0.393262	0	0	-0.340306	0.0955912	-0.00950773	-0.214501	-0.469687	0.508798	0.725724	0.85853	0	0	-0.185948	-0.162382	-0.109724	0.596342	1.5708	0	0
2.53	0.0957428	1.46326	-1.55327	0.714616	-0.444365	0.928816	-0.3206	0.00694471	-0.115043	0.609018	-0.247152	0	0	0.234733	0.0656577	0.0231713	0.274862	-0.386665	0	0	-0.325701	0.0863331	-0.0203453	-0.213938	-0.460772	0.505405	0.708367	0.863553	0	0	-0.179551	-0.162337	-0.105271	0.582788	1.5708	0	0
2.54	0.182732	1.45479	-1.64125	0.716248	-0.455543	0.931035	-0.319701	-0.0148842	-0.122739	0.642432	-0.275532	0	0	0.216901	0.0764081	0.0217231	0.278826	-0.394597	0	0	-0.331487	0.0751724	-0.0183094	-0.219801	-0.454623	0.49432	0.701868	0.874473	0	0	-0.179022	-0.163245	-0.101926	0.579059	1.5708	0	0
2.55	0.0835411	1.44428	-1.55183	0.716728	-0.46853	0.931329	-0.325185	-0.00292522	-0.089871	0.665867	-0.302053	0	0	0.173786	0.063107	0.0356755	0.244339	-0.386498	0	0	-0.336789	0.084495	-0.00811343	-0.234244	-0.464514	0.493247	0.718829	0.87258	0	0	-0.196758	-0.162008	-0.105234	0.596977	1.5708	0	0
2.56	0.117113	1.43761	-1.58368	0.718093	-0.4798	0.932085	-0.314899	-0.0304454	-0.128753	0.714399	-0.351199	0	0	0.158484	0.067804	0.0292056	0.25685	-0.37181	0	0	-0.341656	0.079495	-0.0111106	-0.241041	-0.467261	0.494291	0.726808	0.868426	0	0	-0.207981	-0.164526	-0.1074	0.61229	1.5708	0	0
2.57	0.156184	1.43429	-1.61964	0.719785	-0.490532	0.932808	-0.300004	-0.0510544	-0.148859	0.758333	-0.407512	0	0	0.156787	0.0724913	0.00715575	0.291485	-0.346205	0	0	-0.342796	0.0738919	-0.0172589	-0.243146	-0.468548	0.499775	0.728571	0.864517	0	0	-0.21796	-0.166616	-0.109809	0.624986	1.5708	0	0
2.58	0.17019	1.43221	-1.63313	0.72144	-0.50048	0.93402	-0.280905	-0.0400131	-0.0989395	0.795548	-0.4469	0	0	0.147801	0.0751115	-0.000430199	0.304804	-0.328625	0	0	-0.344441	0.0718063	-0.0189548	-0.243102	-0.470835	0.505538	0.728504	0.861297	0	0	-0.220724	-0.166273	-0.111185	0.628006	1.5708	0	0
2.59	0.240745	1.4286	-1.69904	0.7233	-0.511172	0.933964	-0.257636	-0.0941814	-0.183754	0.859329	-0.523364	0	0	0.136858	0.0854484	-0.0116614	0.317845	-0.307976	0	0	-0.344588	0.061659	-0.0284012	-0.249382	-0.474519	0.508054	0.739279	0.856178	0	0	-0.234017	-0.169539	-0.114962	0.645722	1.5708	0	0
2.6	0.273103	1.42375	-1.72881	0.725059	-0.520995	0.934587	-0.234596	-0.112572	-0.193882	0.912337	-0.58429	0	0	0.124433	0.0894847	-0.0224484	0.32939	-0.287514	0	0	-0.342281	0.0579968	0.00923065	-0.314742	-0.439039	0.360494	0.751565	0.967745	0	0	-0.2063	-0.236177	0.113486	0.646193	1.39228	0	0
2.61	0.255428	1.42273	-1.71247	0.72654	-0.529856	0.936053	-0.208901	-0.0802359	-0.106737	0.946938	-0.601701	0	0	0.113541	0.0855027	-0.0281393	0.333883	-0.276275	0	0	-0.351601	0.0595493	-0.0375442	-0.241207	-0.489373	0.542023	0.748712	0.826627	0	0	-0.243396	-0.16751	-0.123507	0.65836	1.5708	0	0
2.62	0.328202	1.41812	-1.77943	0.72838	-0.539714	0.935814	-0.181426	-0.143845	-0.200228	1.0163	-0.660809	0	0	0.101443	0.0977119	-0.0313634	0.340492	-0.26221	0	0	-0.352739	0.0483999	-0.0478942	-0.249485	-0.490409	0.532938	0.760913	0.832405	0	0	-0.256334	-0.172239	-0.123101	0.677714	1.5708	0	0
2.63	0.335599	1.41665	-1.78578	0.729648	-0.548602	0.936411	-0.152663	-0.153727	-0.196593	1.06521	-0.680699	0	0	0.089576	0.0974731	-0.035192	0.341364	-0.252153	0	0	-0.35393	0.0476445	-0.0487012	-0.253988	-0.492058	0.527098	0.767253	0.837896	0	0	-0.257347	-0.172947	-0.121626	0.681173	1.5708	0	0
2.64	0.292567	1.41731	-1.74471	0.73043	-0.55625	0.938193	-0.122119	-0.108273	-0.104191	1.09582	-0.67932	0	0	0.0792056	0.0898285	-0.0323879	0.341994	-0.248375	0	0	-0.358178	0.0545009	-0.0459583	-0.248676	-0.492293	0.527338	0.764123	0.842256	0	0	-0.24996	-0.171416	-0.119866	0.674721	1.5708	0	0
